# xmcd
#
# Track frame offsets:
#	150
#	16590
#	31037
#	49975
#	66230
#	82337
#	95867
#	105300
#	112862
#	124152
#	135652
#	150615
#	163592
#	170105
#	181435
#	197567
#	216590
#
# Disc length: 3062 seconds
#
# Revision: 3
# Processed by: cddbd v1.5.1PL0 Copyright (c) Steve Scherf et al.
# Submitted via: audiograbber 1.83.01
#
DISCID=ec0bf411
DTITLE=Various Artist - For A Life Of Sin
DYEAR=1994
DGENRE=Country
TTITLE0=Moonshine Willy - Way Out West
TTITLE1=Jon Langford's Hillbilly Lovechild - Over The Cliff
TTITLE2=Swollen Spleens - Tragic Woman
TTITLE3=Freakwater - Drunk Friend
TTITLE4=Cry Baby - Cry Baby
TTITLE5=Robby Fulks - Cigarette State
TTITLE6=Sundowners - Rockin' Spot
TTITLE7=Texas Rubies - That Truck
TTITLE8=Church Key - Doghouse
TTITLE9=Bottle Rockets - Every Kinda Everything
TTITLE10=Handsome Family - Moving Furniture Around
TTITLE11=New Duncan Imperials - If She Wasn't On Blocks
TTITLE12=Flannel Tubs - Flannel Boogie
TTITLE13=Riptones - Suburbia
TTITLE14=Milly And The Sequins - Sucker For A Trucker
TTITLE15=Iggy Yoakam And His Famous Pogo Ponies - Hole In The Ground
TTITLE16=Sundowners - You Don't Know What Lonesome Is
EXTD=
EXTT0=
EXTT1=
EXTT2=
EXTT3=
EXTT4=
EXTT5=
EXTT6=
EXTT7=
EXTT8=
EXTT9=
EXTT10=
EXTT11=
EXTT12=
EXTT13=
EXTT14=
EXTT15=
EXTT16=
PLAYORDER=
